<svg width="25" height="25" viewBox="0 0 25 25" fill="none" xmlns="http://www.w3.org/2000/svg">
<g id="Icon">
<path id="download" d="M12.75 12.2582C12.75 11.9821 12.5261 11.7582 12.25 11.7582C11.9739 11.7582 11.75 11.9821 11.75 12.2582L12.75 12.2582ZM12.25 19.9313L11.8964 20.2848C12.0917 20.4801 12.4083 20.4801 12.6036 20.2848L12.25 19.9313ZM15.3439 17.5444C15.5392 17.3492 15.5392 17.0326 15.3439 16.8373C15.1487 16.6421 14.8321 16.6421 14.6368 16.8373L15.3439 17.5444ZM9.86317 16.8373C9.66791 16.6421 9.35132 16.6421 9.15606 16.8373C8.9608 17.0326 8.9608 17.3492 9.15606 17.5444L9.86317 16.8373ZM8.46842 14.3994C8.74289 14.369 8.94079 14.1219 8.91043 13.8475C8.88008 13.573 8.63297 13.3751 8.3585 13.4055L8.46842 14.3994ZM7.59135 8.96974L7.59261 8.46974H7.59135V8.96974ZM7.59797 8.96975L7.59671 9.46975L7.95125 9.47065L8.06939 9.13637L7.59797 8.96975ZM16.6701 8.42188L16.2223 8.64437L16.3583 8.91796L16.6637 8.92184L16.6701 8.42188ZM15.5385 13.4024C15.2623 13.4024 15.0385 13.6263 15.0385 13.9024C15.0385 14.1786 15.2623 14.4024 15.5385 14.4024V13.4024ZM11.75 12.2582L11.75 19.9313H12.75L12.75 12.2582L11.75 12.2582ZM14.6368 16.8373L11.8964 19.5777L12.6036 20.2848L15.3439 17.5444L14.6368 16.8373ZM12.6036 19.5777L9.86317 16.8373L9.15606 17.5444L11.8964 20.2848L12.6036 19.5777ZM8.3585 13.4055C8.36799 13.4044 8.34197 13.4061 8.25692 13.4066C8.18617 13.4071 8.09748 13.4068 8.0068 13.4062C7.83252 13.405 7.63863 13.4024 7.59135 13.4024V14.4024C7.63669 14.4024 7.80886 14.4048 7.99999 14.4061C8.09201 14.4068 8.18586 14.4071 8.26322 14.4066C8.32628 14.4062 8.41394 14.4054 8.46842 14.3994L8.3585 13.4055ZM7.59135 13.4024C6.50536 13.4024 5.625 12.5221 5.625 11.4361H4.625C4.625 13.0744 5.95307 14.4024 7.59135 14.4024V13.4024ZM5.625 11.4361C5.625 10.3501 6.50536 9.46974 7.59135 9.46974V8.46974C5.95307 8.46974 4.625 9.79781 4.625 11.4361H5.625ZM7.59008 9.46973L7.59671 9.46975L7.59923 8.46975L7.59261 8.46974L7.59008 9.46973ZM8.06939 9.13637C8.67812 7.41406 10.3207 6.18127 12.25 6.18127V5.18127C9.88377 5.18127 7.87208 6.69376 7.12655 8.80313L8.06939 9.13637ZM12.25 6.18127C13.9898 6.18127 15.4964 7.1835 16.2223 8.64437L17.1178 8.19939C16.2295 6.41163 14.3839 5.18127 12.25 5.18127V6.18127ZM16.6637 8.92184C17.8876 8.93735 18.875 9.93443 18.875 11.162H19.875C19.875 9.3864 18.4469 7.94437 16.6764 7.92192L16.6637 8.92184ZM18.875 11.162C18.875 12.3994 17.8719 13.4024 16.6346 13.4024V14.4024C18.4242 14.4024 19.875 12.9517 19.875 11.162H18.875ZM16.6346 13.4024H15.5385V14.4024H16.6346V13.4024Z" fill="white"/>
</g>
</svg>
